<?xml version="1.0" encoding="UTF-8"?>
<svg id="Layer_1" data-name="Layer 1" xmlns="http://www.w3.org/2000/svg" width="512" height="512" viewBox="0 0 512 512">
  <path d="M117.37.44h394.19v394.19c0,64.54-52.4,116.94-116.94,116.94H.44V117.37C.44,52.83,52.83.44,117.37.44Z" fill="#6c4c30"/>
  <g>
    <path d="M399.68,101.12h-24.63l-22.56,1.56c19.23,5.45,22.56,36.46,22.56,36.46h24.63c4.7,0,8.52,3.82,8.52,8.52v261.23h38.02V147.66c0-25.67-20.88-46.55-46.55-46.55Z" fill="#fff"/>
    <path d="M308.29,102.98h-56.96v109.92h-19.73v-110.87h-38.02v110.87h-62.5c-36.01,0-65.31,29.3-65.31,65.31v132.68h95.15c38.97,0,70.67-31.7,70.67-70.67v-72.34h-38.02v72.34c0,18-14.65,32.65-32.65,32.65h-57.13v-94.66c0-15.04,12.24-27.28,27.28-27.28h62.5v.1h38.02v-.1h57.75v-109.92h18.94c5.57,0,10.11,4.53,10.11,10.11v259.65h38.02V151.11c0-26.54-21.59-48.13-48.13-48.13Z" fill="#fff"/>
  </g>
</svg>