<?xml version="1.0" encoding="UTF-8"?>
<svg id="Layer_1" xmlns="http://www.w3.org/2000/svg" version="1.1" viewBox="0 0 512 512">
  <defs>
    <linearGradient id="dm-grad-outer" x1="267.01" y1="-.07" x2="247.01" y2="464.93" gradientUnits="userSpaceOnUse">
      <stop offset="0" stop-color="#bf0035"/>
      <stop offset=".5" stop-color="#f6ff00"/>
      <stop offset="1" stop-color="#097f00"/>
    </linearGradient>
    <linearGradient id="dm-grad-inner" x1="16" y1="256.01" x2="496" y2="256.01" gradientUnits="userSpaceOnUse">
      <stop offset="0" stop-color="#bf0035"/>
      <stop offset=".5" stop-color="#f6ff00"/>
      <stop offset="1" stop-color="#097f00"/>
    </linearGradient>
  </defs>
  <path fill="url(#dm-grad-outer)" d="M121.71,508.01c-64.91,0-117.71-52.8-117.71-117.71V125.81C4,58.64,58.64,4,125.81,4h264.48c64.91,0,117.71,52.81,117.71,117.71v264.48c0,67.17-54.65,121.82-121.82,121.82H121.71Z"/>
  <path fill="url(#dm-grad-inner)" d="M125.81,16h264.48c58.38,0,105.71,47.33,105.71,105.71v264.48c0,60.65-49.17,109.82-109.82,109.82H121.71c-58.38,0-105.71-47.33-105.71-105.71V125.81c0-60.65,49.16-109.81,109.81-109.81Z"/>
  <g fill="#fff">
    <path d="M409.33,90.71h-26.28l-24.08,1.66c20.52,5.82,24.08,38.91,24.08,38.91h26.28c5.02,0,9.09,4.08,9.09,9.09v278.78h40.57V140.38c0-27.39-22.28-49.68-49.68-49.68h.01Z"/>
    <path d="M311.8,92.7h-60.79v117.3h-21.06v-118.32h-40.57v118.32h-66.7c-38.43,0-69.7,31.27-69.7,69.7v141.59h101.54c41.59,0,75.42-33.83,75.42-75.42v-77.2h-40.57v77.2c0,19.21-15.63,34.84-34.84,34.84h-60.97v-101.02c0-16.05,13.06-29.11,29.11-29.11h66.7v.11h40.57v-.11h61.63v-117.3h20.21c5.94,0,10.79,4.83,10.79,10.79v277.09h40.57V144.06c0-28.32-23.04-51.36-51.36-51.36h.01Z"/>
  </g>
</svg>
